<svg viewBox="0 0 240 240" xmlns="http://www.w3.org/2000/svg"><defs><linearGradient id="fb" x1="0" y1="0" x2="0" y2="1"><stop offset="0" stop-color="#FFFFFF"/><stop offset="1" stop-color="#E7F0F6"/></linearGradient><linearGradient id="fr" x1="0" y1="0" x2="0" y2="1"><stop offset="0" stop-color="#173E63"/><stop offset="1" stop-color="#0B2540"/></linearGradient><linearGradient id="fln" x1="0" y1="0" x2="0" y2="1"><stop offset="0" stop-color="#F3FAFE"/><stop offset="1" stop-color="#D7EBF9"/></linearGradient></defs><path d="M38 126 L120 82 L202 126 Q206 130 200 130 L40 130 Q34 130 38 126 Z" fill="url(#fr)" stroke="#0B2540" stroke-width="6" stroke-linejoin="round"/><rect x="52" y="124" width="136" height="80" rx="22" fill="url(#fb)" stroke="#0B2540" stroke-width="6"/><path d="M64 132 Q120 126 176 132" stroke="#fff" stroke-width="6" opacity="0.12" fill="none" stroke-linecap="round"/><path d="M148 77 Q148 74 151 74 L159 74 Q162 74 162 77 L162 105.5 L148 98 Z" fill="#E07A52" stroke="#0B2540" stroke-width="4" stroke-linejoin="round"/><rect x="145" y="70" width="20" height="9" rx="3" fill="#B85C39" stroke="#0B2540" stroke-width="4"/><rect x="72" y="136" width="36" height="37" rx="14" fill="url(#fln)" stroke="#0B2540" stroke-width="4.5"/><ellipse cx="83" cy="145" rx="5.5" ry="3" fill="#fff" opacity="0.6"/><rect x="132" y="136" width="36" height="37" rx="14" fill="url(#fln)" stroke="#0B2540" stroke-width="4.5"/><ellipse cx="143" cy="145" rx="5.5" ry="3" fill="#fff" opacity="0.6"/><path d="M107 148 Q120 142 133 148" fill="none" stroke="#0B2540" stroke-width="4" stroke-linecap="round"/><circle cx="92" cy="155" r="9" fill="#0B2540"/><circle cx="86.5" cy="150" r="3.8" fill="#fff"/><circle cx="152" cy="155" r="9" fill="#0B2540"/><circle cx="146.5" cy="150" r="3.8" fill="#fff"/><ellipse cx="73" cy="184" rx="8.5" ry="5.5" fill="#FF8073" opacity="0.85"/><ellipse cx="167" cy="184" rx="8.5" ry="5.5" fill="#FF8073" opacity="0.85"/><path d="M96 181 Q120 201 144 181 Q120 191 96 181 Z" fill="#0B2540"/><path d="M111 188 Q120 194 129 188 Q120 191 111 188 Z" fill="#FF8073"/></svg>
