<svg viewBox="443 259 140 140" xmlns="http://www.w3.org/2000/svg">
  <!-- Fintley (wink) - Fint Picks mascot, final 2026 design. transparent variant. -->
  <g>
  <g transform="rotate(-4 506 330)">
    <ellipse cx="506" cy="382" rx="40" ry="6.5" fill="#000000" fill-opacity="0.08"/>
    <path d="M497 299 L490 280 M515 299 L522 280" stroke="#0A6B60" stroke-width="4.5" stroke-linecap="round" fill="none"/>
    <circle cx="489" cy="276" r="6.5" fill="#F2C440"/><circle cx="523" cy="276" r="6.5" fill="#F2C440"/>
    <rect x="464" y="297" width="84" height="66" rx="28" fill="#0FA899"/>
    <ellipse cx="491" cy="324" rx="10.5" ry="12" fill="#FFFFFF"/><circle cx="491" cy="325" r="6" fill="#0B2540"/><circle cx="488" cy="321.5" r="2.4" fill="#FFFFFF"/><circle cx="494" cy="328" r="1.3" fill="#FFFFFF" fill-opacity="0.9"/>
    <path d="M513 324 Q521 316 529 324" stroke="#0B2540" stroke-width="4.5" stroke-linecap="round" fill="none"/>
    <circle cx="480" cy="338" r="4.5" fill="#FF8073" fill-opacity="0.42"/><circle cx="532" cy="338" r="4.5" fill="#FF8073" fill-opacity="0.42"/>
    <path d="M494 347 Q508 355 520 345" stroke="#0B2540" stroke-width="4.5" stroke-linecap="round" fill="none"/>
    <path d="M552 294 Q553.6 302.4 562 304 Q553.6 305.6 552 314 Q550.4 305.6 542 304 Q550.4 302.4 552 294 Z" fill="#F2C440" stroke="#0B2540" stroke-width="3" stroke-linejoin="round"/>
    <path d="M560 326 Q561 330.5 565.5 331.5 Q561 332.5 560 337 Q559 332.5 554.5 331.5 Q559 330.5 560 326 Z" fill="#F2C440"/>
  </g>
  </g>
</svg>
